<svg xmlns="http://www.w3.org/2000/svg" viewBox="0 0 320 230" aria-labelledby="title"><title id="title">Antiguan sailing harbour</title><desc>Original stylized country celebration illustration for Antigua and Barbuda. Not an architectural reconstruction.</desc><circle cx="160" cy="111" r="88" fill="#f5cc65" opacity=".09"/><g stroke-linejoin="round"><path d="M25,189L79,141L128,122L179,143L236,126L294,186L292 203H25Z" fill="#639585" /><rect x="64" y="115" width="27" height="58" rx="1" fill="#eac77d"/><path d="M61 115l16-15l17 15Z" fill="#b98a59" /><path d="M71 144V134.5Q75.5 125.5 80 134.5V144Z" fill="#554a39" /><rect x="96" y="128" width="27" height="58" rx="1" fill="#eac77d"/><path d="M93 128l16-15l17 15Z" fill="#b98a59" /><path d="M103 157V147.5Q107.5 138.5 112 147.5V157Z" fill="#554a39" /><rect x="128" y="141" width="27" height="58" rx="1" fill="#eac77d"/><path d="M125 141l16-15l17 15Z" fill="#b98a59" /><path d="M135 170V160.5Q139.5 151.5 144 160.5V170Z" fill="#554a39" /><rect x="160" y="115" width="27" height="58" rx="1" fill="#eac77d"/><path d="M157 115l16-15l17 15Z" fill="#b98a59" /><path d="M167 144V134.5Q171.5 125.5 176 134.5V144Z" fill="#554a39" /><path d="M23 190Q65 181 110 191T201 190T297 192L282 210H37Z" fill="#6e9db0" /><path d="M55 200H113M159 202H206M230 198H270" fill="none" stroke="#badedc" stroke-width="2" stroke-linecap="round"/><g transform="translate(177 193) scale(0.6)"><path d="M-46 0H46L27 14H-28Z" fill="#b98a59" /><path d="M0 0V-87" fill="none" stroke="#fff0bb" stroke-width="3" stroke-linecap="round"/><path d="M-5-82L-39-7H-5Z" fill="#fff0bb" /><path d="M5-72L38-7H5Z" fill="#eac77d" /></g></g></svg>
