<svg xmlns="http://www.w3.org/2000/svg" viewBox="0 0 320 230" aria-labelledby="title"><title id="title">Sydney Opera House</title><desc>Original stylized country celebration illustration for Australia. Not an architectural reconstruction.</desc><circle cx="160" cy="111" r="88" fill="#f5cc65" opacity=".09"/><g stroke-linejoin="round"><path d="M23 190Q65 181 110 191T201 190T297 192L282 210H37Z" fill="#6e9db0" /><path d="M55 200H113M159 202H206M230 198H270" fill="none" stroke="#badedc" stroke-width="2" stroke-linecap="round"/><path d="M42 190Q31 111 84 88L118 190Z" fill="#fff0bb" /><path d="M94 190Q87 78 154 41L177 190Z" fill="#eac77d" /><path d="M154 190Q183 94 247 72L224 190Z" fill="#fff0bb" /><path d="M219 190Q243 124 282 136L278 190Z" fill="#eac77d" /><path d="M44 198H286" fill="none" stroke="#b98a59" stroke-width="8" stroke-linecap="round"/><path d="M154 45L129 181M244 77L185 182" fill="none" stroke="#b98a59" stroke-width="2" stroke-linecap="round"/></g></svg>
