<svg xmlns="http://www.w3.org/2000/svg" viewBox="0 0 320 230" aria-labelledby="title"><title id="title">Hong Kong harbour skyline</title><desc>Original stylized country celebration illustration for Hong Kong. Not an architectural reconstruction.</desc><circle cx="160" cy="111" r="88" fill="#f5cc65" opacity=".09"/><g stroke-linejoin="round"><path d="M23 190Q65 181 110 191T201 190T297 192L282 210H37Z" fill="#6e9db0" /><path d="M55 200H113M159 202H206M230 198H270" fill="none" stroke="#badedc" stroke-width="2" stroke-linecap="round"/><rect x="33" y="132" width="27" height="70" rx="1" fill="#6e9db0"/><path d="M46 120v12" fill="none" stroke="#fff0bb" stroke-width="2" stroke-linecap="round"/><path d="M38 147h16" fill="none" stroke="#fff0bb" stroke-width="2" stroke-linecap="round"/><path d="M38 163h16" fill="none" stroke="#fff0bb" stroke-width="2" stroke-linecap="round"/><path d="M38 179h16" fill="none" stroke="#fff0bb" stroke-width="2" stroke-linecap="round"/><path d="M38 195h16" fill="none" stroke="#fff0bb" stroke-width="2" stroke-linecap="round"/><path d="M38 211h16" fill="none" stroke="#fff0bb" stroke-width="2" stroke-linecap="round"/><rect x="70" y="91" width="27" height="111" rx="1" fill="#6e9db0"/><path d="M83 79v12" fill="none" stroke="#fff0bb" stroke-width="2" stroke-linecap="round"/><path d="M75 106h16" fill="none" stroke="#fff0bb" stroke-width="2" stroke-linecap="round"/><path d="M75 122h16" fill="none" stroke="#fff0bb" stroke-width="2" stroke-linecap="round"/><path d="M75 138h16" fill="none" stroke="#fff0bb" stroke-width="2" stroke-linecap="round"/><path d="M75 154h16" fill="none" stroke="#fff0bb" stroke-width="2" stroke-linecap="round"/><path d="M75 170h16" fill="none" stroke="#fff0bb" stroke-width="2" stroke-linecap="round"/><rect x="103" y="117" width="27" height="85" rx="1" fill="#6e9db0"/><path d="M116 105v12" fill="none" stroke="#fff0bb" stroke-width="2" stroke-linecap="round"/><path d="M108 132h16" fill="none" stroke="#fff0bb" stroke-width="2" stroke-linecap="round"/><path d="M108 148h16" fill="none" stroke="#fff0bb" stroke-width="2" stroke-linecap="round"/><path d="M108 164h16" fill="none" stroke="#fff0bb" stroke-width="2" stroke-linecap="round"/><path d="M108 180h16" fill="none" stroke="#fff0bb" stroke-width="2" stroke-linecap="round"/><path d="M108 196h16" fill="none" stroke="#fff0bb" stroke-width="2" stroke-linecap="round"/><rect x="140" y="47" width="27" height="155" rx="1" fill="#6e9db0"/><path d="M153 35v12" fill="none" stroke="#fff0bb" stroke-width="2" stroke-linecap="round"/><path d="M145 62h16" fill="none" stroke="#fff0bb" stroke-width="2" stroke-linecap="round"/><path d="M145 78h16" fill="none" stroke="#fff0bb" stroke-width="2" stroke-linecap="round"/><path d="M145 94h16" fill="none" stroke="#fff0bb" stroke-width="2" stroke-linecap="round"/><path d="M145 110h16" fill="none" stroke="#fff0bb" stroke-width="2" stroke-linecap="round"/><path d="M145 126h16" fill="none" stroke="#fff0bb" stroke-width="2" stroke-linecap="round"/><rect x="180" y="75" width="27" height="127" rx="1" fill="#6e9db0"/><path d="M193 63v12" fill="none" stroke="#fff0bb" stroke-width="2" stroke-linecap="round"/><path d="M185 90h16" fill="none" stroke="#fff0bb" stroke-width="2" stroke-linecap="round"/><path d="M185 106h16" fill="none" stroke="#fff0bb" stroke-width="2" stroke-linecap="round"/><path d="M185 122h16" fill="none" stroke="#fff0bb" stroke-width="2" stroke-linecap="round"/><path d="M185 138h16" fill="none" stroke="#fff0bb" stroke-width="2" stroke-linecap="round"/><path d="M185 154h16" fill="none" stroke="#fff0bb" stroke-width="2" stroke-linecap="round"/><rect x="220" y="111" width="27" height="91" rx="1" fill="#6e9db0"/><path d="M233 99v12" fill="none" stroke="#fff0bb" stroke-width="2" stroke-linecap="round"/><path d="M225 126h16" fill="none" stroke="#fff0bb" stroke-width="2" stroke-linecap="round"/><path d="M225 142h16" fill="none" stroke="#fff0bb" stroke-width="2" stroke-linecap="round"/><path d="M225 158h16" fill="none" stroke="#fff0bb" stroke-width="2" stroke-linecap="round"/><path d="M225 174h16" fill="none" stroke="#fff0bb" stroke-width="2" stroke-linecap="round"/><path d="M225 190h16" fill="none" stroke="#fff0bb" stroke-width="2" stroke-linecap="round"/><rect x="257" y="144" width="27" height="58" rx="1" fill="#6e9db0"/><path d="M270 132v12" fill="none" stroke="#fff0bb" stroke-width="2" stroke-linecap="round"/><path d="M262 159h16" fill="none" stroke="#fff0bb" stroke-width="2" stroke-linecap="round"/><path d="M262 175h16" fill="none" stroke="#fff0bb" stroke-width="2" stroke-linecap="round"/><path d="M262 191h16" fill="none" stroke="#fff0bb" stroke-width="2" stroke-linecap="round"/><path d="M262 207h16" fill="none" stroke="#fff0bb" stroke-width="2" stroke-linecap="round"/><path d="M262 223h16" fill="none" stroke="#fff0bb" stroke-width="2" stroke-linecap="round"/></g></svg>
