<svg xmlns="http://www.w3.org/2000/svg" viewBox="0 0 320 230" aria-labelledby="title"><title id="title">Monaco hillside waterfront</title><desc>Original stylized country celebration illustration for Monaco. Not an architectural reconstruction.</desc><circle cx="160" cy="111" r="88" fill="#f5cc65" opacity=".09"/><g stroke-linejoin="round"><path d="M25,189L79,141L128,122L179,143L236,126L294,186L292 203H25Z" fill="#639585" /><rect x="49" y="98" width="27" height="58" rx="1" fill="#eac77d"/><path d="M46 98l16-15l17 15Z" fill="#b98a59" /><path d="M56 127V117.5Q60.5 108.5 65 117.5V127Z" fill="#554a39" /><rect x="81" y="111" width="27" height="58" rx="1" fill="#eac77d"/><path d="M78 111l16-15l17 15Z" fill="#b98a59" /><path d="M88 140V130.5Q92.5 121.5 97 130.5V140Z" fill="#554a39" /><rect x="113" y="124" width="27" height="58" rx="1" fill="#eac77d"/><path d="M110 124l16-15l17 15Z" fill="#b98a59" /><path d="M120 153V143.5Q124.5 134.5 129 143.5V153Z" fill="#554a39" /><rect x="145" y="98" width="27" height="58" rx="1" fill="#eac77d"/><path d="M142 98l16-15l17 15Z" fill="#b98a59" /><path d="M152 127V117.5Q156.5 108.5 161 117.5V127Z" fill="#554a39" /><rect x="177" y="111" width="27" height="58" rx="1" fill="#eac77d"/><path d="M174 111l16-15l17 15Z" fill="#b98a59" /><path d="M184 140V130.5Q188.5 121.5 193 130.5V140Z" fill="#554a39" /><rect x="209" y="124" width="27" height="58" rx="1" fill="#eac77d"/><path d="M206 124l16-15l17 15Z" fill="#b98a59" /><path d="M216 153V143.5Q220.5 134.5 225 143.5V153Z" fill="#554a39" /><path d="M23 190Q65 181 110 191T201 190T297 192L282 210H37Z" fill="#6e9db0" /><path d="M55 200H113M159 202H206M230 198H270" fill="none" stroke="#badedc" stroke-width="2" stroke-linecap="round"/><g transform="translate(177 193) scale(0.6)"><path d="M-46 0H46L27 14H-28Z" fill="#b98a59" /><path d="M0 0V-87" fill="none" stroke="#fff0bb" stroke-width="3" stroke-linecap="round"/><path d="M-5-82L-39-7H-5Z" fill="#fff0bb" /><path d="M5-72L38-7H5Z" fill="#eac77d" /></g></g></svg>
