<svg xmlns="http://www.w3.org/2000/svg" viewBox="0 0 320 230" aria-labelledby="title"><title id="title">Aoraki alpine landscape</title><desc>Original stylized country celebration illustration for New Zealand. Not an architectural reconstruction.</desc><circle cx="160" cy="111" r="88" fill="#f5cc65" opacity=".09"/><g stroke-linejoin="round"><path d="M27,198L91,128L134,78L157,36L188,114L218,95L292,198L292 203H25Z" fill="#6e9db0" /><path d="M115 109L134 78L156 113L140 104L132 113L125 102Z" fill="#fff0bb" /><path d="M138 67L157 36L179 71L163 62L155 71L148 60Z" fill="#fff0bb" /><path d="M199 126L218 95L240 130L224 121L216 130L209 119Z" fill="#fff0bb" /><ellipse cx="160" cy="208" rx="131" ry="9" fill="#d3b574"/></g></svg>
