<svg xmlns="http://www.w3.org/2000/svg" viewBox="0 0 320 230" aria-labelledby="title"><title id="title">Andean terraces</title><desc>Original stylized country celebration illustration for Peru. Not an architectural reconstruction.</desc><circle cx="160" cy="111" r="88" fill="#f5cc65" opacity=".09"/><g stroke-linejoin="round"><path d="M25,192L82,131L123,148L169,84L225,138L291,192L292 203H25Z" fill="#639585" /><path d="M127.5 81l15-17h35l15 17Z" fill="#639585" /><path d="M115 101l15-17h60l15 17Z" fill="#eac77d" /><path d="M102.5 121l15-17h85l15 17Z" fill="#639585" /><path d="M90 141l15-17h110l15 17Z" fill="#eac77d" /><path d="M77.5 161l15-17h135l15 17Z" fill="#639585" /><path d="M65 181l15-17h160l15 17Z" fill="#eac77d" /><path d="M52.5 201l15-17h185l15 17Z" fill="#639585" /><rect x="139" y="110" width="25" height="16" rx="1" fill="#b98a59"/><rect x="174" y="127" width="22" height="15" rx="1" fill="#b98a59"/><ellipse cx="160" cy="208" rx="131" ry="9" fill="#d3b574"/></g></svg>
