<svg xmlns="http://www.w3.org/2000/svg" viewBox="0 0 320 230" aria-labelledby="title"><title id="title">Swazi mountain and homestead</title><desc>Original stylized country celebration illustration for Eswatini. Not an architectural reconstruction.</desc><circle cx="160" cy="111" r="88" fill="#f5cc65" opacity=".09"/><g stroke-linejoin="round"><path d="M25 201Q90 159 159 181Q221 165 294 204Z" fill="#639585" /><rect x="70" y="159" width="42" height="41" rx="1" fill="#b98a59"/><path d="M57 159Q91 98 125 159Z" fill="#eac77d" /><rect x="86" y="174" width="12" height="26" rx="1" fill="#554a39"/><rect x="135" y="171" width="42" height="41" rx="1" fill="#b98a59"/><path d="M122 171Q156 110 190 171Z" fill="#eac77d" /><rect x="151" y="186" width="12" height="26" rx="1" fill="#554a39"/><rect x="200" y="159" width="42" height="41" rx="1" fill="#b98a59"/><path d="M187 159Q221 98 255 159Z" fill="#eac77d" /><rect x="216" y="174" width="12" height="26" rx="1" fill="#554a39"/></g></svg>
