<svg xmlns="http://www.w3.org/2000/svg" viewBox="0 0 320 230" aria-labelledby="title"><title id="title">Togolese earthen tower houses</title><desc>Original stylized country celebration illustration for Togo. Not an architectural reconstruction.</desc><circle cx="160" cy="111" r="88" fill="#f5cc65" opacity=".09"/><g stroke-linejoin="round"><ellipse cx="160" cy="208" rx="131" ry="9" fill="#d3b574"/><path d="M62 202L66 108H93L98 202Z" fill="#b98a59" /><path d="M69 120l10 9l10-9m-20 22l10 9l10-9" fill="none" stroke="#fff0bb" stroke-width="3" stroke-linecap="round"/><rect x="76" y="177" width="9" height="25" rx="1" fill="#554a39"/><path d="M96 202L100 121H127L132 202Z" fill="#b98a59" /><path d="M103 133l10 9l10-9m-20 22l10 9l10-9" fill="none" stroke="#fff0bb" stroke-width="3" stroke-linecap="round"/><rect x="110" y="177" width="9" height="25" rx="1" fill="#554a39"/><path d="M130 202L134 134H161L166 202Z" fill="#b98a59" /><path d="M137 146l10 9l10-9m-20 22l10 9l10-9" fill="none" stroke="#fff0bb" stroke-width="3" stroke-linecap="round"/><rect x="144" y="177" width="9" height="25" rx="1" fill="#554a39"/><path d="M164 202L168 108H195L200 202Z" fill="#b98a59" /><path d="M171 120l10 9l10-9m-20 22l10 9l10-9" fill="none" stroke="#fff0bb" stroke-width="3" stroke-linecap="round"/><rect x="178" y="177" width="9" height="25" rx="1" fill="#554a39"/></g></svg>
