<svg xmlns="http://www.w3.org/2000/svg" viewBox="0 0 320 230" aria-labelledby="title"><title id="title">Ha Long limestone islands</title><desc>Original stylized country celebration illustration for Vietnam. Not an architectural reconstruction.</desc><circle cx="160" cy="111" r="88" fill="#f5cc65" opacity=".09"/><g stroke-linejoin="round"><path d="M23 190Q65 181 110 191T201 190T297 192L282 210H37Z" fill="#6e9db0" /><path d="M55 200H113M159 202H206M230 198H270" fill="none" stroke="#badedc" stroke-width="2" stroke-linecap="round"/><path d="M52 191L59 139Q74 102 91 136L97 192Z" fill="#7aa291" /><path d="M96 191L103 158Q118 121 135 155L141 192Z" fill="#639585" /><path d="M140 191L147 139Q162 102 179 136L185 192Z" fill="#7aa291" /><path d="M184 191L191 158Q206 121 223 155L229 192Z" fill="#639585" /><g transform="translate(163 195) scale(0.35)"><path d="M-46 0H46L27 14H-28Z" fill="#b98a59" /><path d="M0 0V-87" fill="none" stroke="#fff0bb" stroke-width="3" stroke-linecap="round"/><path d="M-5-82L-39-7H-5Z" fill="#fff0bb" /><path d="M5-72L38-7H5Z" fill="#eac77d" /></g></g></svg>
